<?xml version="1.0" encoding="utf-8"?>
<!-- Generator: Adobe Illustrator 21.1.0, SVG Export Plug-In . SVG Version: 6.00 Build 0)  -->
<svg version="1.1" id="Слой_1" xmlns="http://www.w3.org/2000/svg" xmlns:xlink="http://www.w3.org/1999/xlink" x="0px" y="0px"
	 viewBox="0 0 969.1 511.4" style="enable-background:new 0 0 969.1 511.4;" xml:space="preserve">
<style type="text/css">
	.st0{fill:#201600;}
</style>
<g>
	<g>
		<path class="st0" d="M920.8,286.5c-25.4-22-56-37.4-86.3-51.3c-8.8-4-17.6-7.9-26.4-12c-3.1-1.4-5.5,1.5-4.6,4
			c-0.5-0.3-1-0.5-1.4-0.8c-1.6-0.9-3.4,0.3-3.9,1.7c-1.9,0.1-3.6,2.5-1.7,4c0.8,0.7,1.7,1.4,2.5,2.1c-3-1.6-6.2-2.9-9.4-4
			c0.3-0.3,0.6-0.5,0.9-0.8c2.7-2.6,0.1-7.1-3.1-6.9c0,0,0,0,0,0c2.5-3.3-2.2-7.1-5.4-5.4c-0.4,0.2-0.8,0.4-1.2,0.6
			c4.6-4.1,9.2-8.2,13.8-12.3c3.1-2.7-0.2-8.5-4.1-7c-2.6,1-5.2,2-7.7,3.2c0-2.6-2.2-5.1-5.4-4.3c-5.7,1.5-10.9,4.3-15.9,7.6
			c-0.8-1.5-2.5-2.6-4.8-2.3c-4.4,0.6-8.3,2-12,3.8c-0.8-1.7-2.8-3-4.7-1.6c-1.8,1.3-3.6,2.6-5.5,3.9c3.6-3.5,7.2-6.9,10.8-10.3
			c2-1.8-0.9-4.5-2.9-2.9c-1.1,0.9-2.2,1.8-3.3,2.7c-2.7,2.2-5.5,4.5-8.2,6.8c-0.9-0.2-1.8-0.2-2.7,0.3c0,0,0-0.1,0-0.1
			c6.7-5.8,13.6-11.4,20.6-16.9c2-1.5-0.6-4.9-2.7-3.5c-8.5,5.6-17,11.4-25.3,17.3c4.6-4.8,9.2-9.5,14-14.1c0.6-0.5,1.2-1.1,1.7-1.7
			c0.9-1-0.4-2.2-1.4-1.4c-9.9,8.3-19.3,17.2-28.3,26.5c-0.6,0.6-1.1,1.2-1.7,1.8c-1.4,0.8-2.7,1.7-4,2.7c-1.1,0.2-2.1,0.5-3,0.8
			c5.4-5.8,10.9-11.5,16.7-17c0.9-0.9,0.1-2.1-0.8-2.2c0.4-0.4,0.8-0.8,1.1-1.2c2.9-3.1-1.6-7.7-4.7-4.7
			c-7.6,7.3-14.8,14.8-21.7,22.7c1.5-2.6,3.2-5.1,4.9-7.6c2.1-3,3.7-6.4,5.8-9.3c0.7-0.9-0.7-2.2-1.6-1.6c-3.1,2.3-6.5,4.2-9.2,7.1
			c-2.4,2.6-4.6,5.6-6.7,8.5c-0.6-1.1-1.9-1.8-3.2-1.2c1-2,2-4,3-5.9c1.4-2.4,2.8-4.7,4.1-7.2c0.3-0.5,0.3-1.1,0.2-1.6
			c1.2-2.4,2.3-4.7,3.5-7.1c0.9-1.9-1.6-3.4-2.8-1.6c-2.1,3.1-4.1,6.2-6.2,9.3c-5.1,5.5-9.8,11.5-14.1,17.8c-0.7-1-2.3-1.4-3.6-0.4
			c-0.7,0.5-1.4,1.1-2.1,1.7c2.6-4.9,5.3-9.8,8-14.7c0.8-1.5-1.4-2.9-2.4-1.4c0,0,0,0.1-0.1,0.1c-0.6-0.6-1.5-0.9-2.5-0.5
			c-3.9,1.7-6.7,5.7-9.3,9c-2.6,3.4-5.1,6.9-7.3,10.6c-0.7,1.1-1.3,2.2-2,3.3c-1.5,1.7-3,3.4-4.4,5.2c-0.2,0-0.4-0.1-0.5-0.1
			c0.1-0.2,0.1-0.4,0.2-0.6c0.7-2.1-2.5-2.9-3.2-0.9c-0.5,1.5-1.1,2.9-1.7,4.4c-0.5,0.6-0.9,1.3-1.3,2c-1.2-0.2-2.5,0.2-3.1,1.5
			c-0.9,1.9-1.8,3.9-2.6,5.8c-1.1,0-2.3,0.6-3.2,1.9c-4.4,6.6-7.8,13.7-10.2,21.2c-0.3-0.2-0.6-0.3-1-0.4c0.6-1.4,1.1-2.9,1.5-4.3
			c0.7-2.3-0.6-3.8-2.3-4.3c0.2-1.7,0.4-3.5,0.4-5.3c0-1-0.5-1.8-1.2-2.3c1.5-3.9,2.9-7.8,4.3-11.7c1-2.7-3.4-4.6-4.7-2
			c-4,8-7.9,16-11.9,24.1c-1,0-2,0.3-2.8,1c-2.9,2.7-5.7,5.5-8.4,8.5c-1.2-1.8-3.6-2.6-5.3-1.4c-0.1-1.7-0.4-3.3-0.9-5
			c-0.4-1.5-1.6-2.4-2.9-2.6c0.1-2.3,0.1-4.6,0-6.9c0-0.8-0.3-1.5-0.8-2c0.5-4.6,0.7-9.2,0.5-13.8c-0.1-1.6-2.6-2.1-2.9-0.4
			c-0.9,4.9-1.8,9.8-2.8,14.6c-0.1,0.2-0.2,0.4-0.3,0.7c-2.1,7.6-4.3,15.2-6.3,22.8c-0.5,1.9,0.6,3.2,2.1,3.7
			c-0.1,0.2-0.2,0.5-0.2,0.7c-2.8,3-5.1,6.6-7.4,9.9c-2.4,3.4-4.8,7.1-6.2,11.1c-2.4,6.8-0.6,15.7,6.5,18.8c-3.1,4-6.2,8.1-9.1,12.2
			c-0.6,0.9-0.7,1.8-0.4,2.6c-3.3,3.7-6,8.2-7,13c0,0.1-0.1,0.1-0.1,0.2c-0.9,1.3-0.8,2.5-0.1,3.4c-1.2,1.8-2.5,3.5-3.7,5.2
			c-1,1.3,0.2,2.8,1.5,3.1c-0.7,0.8-0.9,2-0.4,2.9c-0.3,0.3-0.6,0.5-0.9,0.8c-0.5,0.4,0.2,1.3,0.7,0.9c0.4-0.3,0.8-0.6,1.2-1
			c0.1,0,0.2,0.1,0.3,0.1c3,0.5,5.9,0.4,8.8-0.7c1.5-0.6,2.2-2.1,1.4-3.5c-0.5-1-0.8-2-1.1-3c0.5-0.5,1-1,1.5-1.5
			c0,0,0.1-0.1,0.1-0.1c0.2-0.1,0.3-0.3,0.4-0.4c1.2-1.3,2.5-2.6,3.7-3.8c0,0.7,0,1.3,0,2c-0.2,0.3-0.5,0.6-0.7,0.9
			c-1,1.1-2.1,1.9-3.1,3c-1.1,1.2,0.4,3.3,1.8,2.3c0.8-0.6,1.7-1.2,2.4-1.9c0.6,1,1.6,1.5,2.7,1.6c0.2,1.3,0.5,2.5,0.9,3.6
			c0.8,1.9,3.9,1.9,3.9-0.5c0-1.7-0.3-3.5-0.6-5.2c0.3-0.4,0.5-0.8,0.6-1.4c0.2-0.8,0.4-1.6,0.6-2.3c0.8,0.3,1.6,0.3,2.3,0.1
			c-0.1,0.3-0.1,0.6-0.2,0.8c-0.1,0.6,0.6,1.1,1.1,0.6c0.6-0.6,1.1-1.3,1.5-2c0,0.3,0.1,0.6,0.2,0.8c0.4,1.2,2.1,1.2,2.5,0
			c0.4-1.3,0.1-2.6,0-4c-0.1-0.9-0.2-1.9-0.2-2.8c0,0,0,0,0.1-0.1c0.2,0.4,0.6,0.8,1.2,0.7c0.7,0,1.3-0.6,1.3-1.3c0-0.1,0-0.1,0-0.2
			c0.1,0.5,0.3,0.9,0.6,1.4c0.7,1.1,2.3,1.1,3,0c0.9-1.5,0.9-3.3,0.7-5.1c0.4-0.5,0.7-1.2,0.7-2.1c0-0.3,0-0.6,0-0.9
			c1.3-1.2,2.6-2.4,3.9-3.6c-0.1,1.2,0.7,2.2,1.7,2.8c-1.9,2.6-3.8,5.1-5.7,7.7c-4.9,6.5-10,12.9-14.3,19.7c-1,1.6,1.2,3.2,2.5,1.9
			c5.9-5.8,11-12.3,16.1-18.8c2.5-3.2,4.9-6.4,7.3-9.6c0.4-0.5,0.7-1,1.1-1.4c1,0.2,2,0,2.9-1c3.2-3.6,6.4-7.3,9.5-11
			c1.2-1.5,1.1-3.1,0.3-4.2c1.1-1.6,2.3-3.2,3.4-4.8c1.9-1.5,3.8-3.2,5.4-5c0.8-0.8,0.6-1.9-0.1-2.5c0.8-1.2,1.7-2.3,2.6-3.5
			c0.8-0.9,1.5-1.9,2.3-2.8c-0.5,1.5,0.2,3.1,1.3,3.9c-1.5,2.1-2.9,4.2-4.3,6.3c-2.4,3.6,3.2,6.6,5.7,3.3c5.5-7.3,11.2-14.3,17-21.3
			c-1.1,4.4-2.1,8.9-3,13.4c-3.2,9.4-5.8,18.9-6.3,29c0,0.5,0,0.9,0.2,1.3c-0.9,4.7-1.9,9.3-2.8,14c-0.7,1.7-1.3,3.4-1.9,5.1
			c0,0,0,0-0.1,0.1c-2,2.5-2.7,5.6-1.9,8.5c-0.3,2.3-0.3,4.7-0.1,7.1c0.3,2.9,5,4.1,5.5,0.7c0.2-1.1,0.4-2.1,0.5-3.2
			c1.4-0.3,2.7-1.3,3-2.8c1.5-7.4,3-14.8,4.4-22.2c0.1-0.3,0.3-0.6,0.4-0.9c1.5,0.7,3.3,0.4,4.1-1.5c0.1-0.3,0.2-0.6,0.4-0.8
			c0,0,0,0,0,0c0,0,0,0,0,0c3-7.1,5.1-14.6,7-22.2c4.3-9.9,8.2-20,11.7-30.2c0.8-0.1,1.6-0.4,2.3-1.1c3.6-3.5,7.3-7,10.9-10.4
			c0,2.5,2.2,4.6,4.6,4.3c-1.3,2.4-2.6,4.9-3.9,7.4c-1.4,2.9,1.9,6.3,4.5,4.6c0.1,1.9,0.1,3.7,0.2,5.6c-0.2,0.3-0.3,0.6-0.5,0.9
			c-0.9,1.8-0.5,3.7,0.7,4.9c0.1,1.2,0.1,2.4,0.2,3.6c-0.2,0.7-0.3,1.4-0.5,2.1c-0.3,1.3,0,2.3,0.7,3c0.1,3,0.2,6,0.3,9.1
			c0,0,0,0.1,0,0.1c-1.3,2.5-2.6,5.1-3.8,7.7c-1.3,2.9,1.1,6.2,3.7,6.2c-0.1,1.5-0.1,2.9-0.2,4.4c-0.3,0.5-0.5,1-0.8,1.5
			c-1.6,3.3-3.5,6.6-2.9,10.5c0.5,3.6,2.4,6.5,2.6,10.2c0.1,3.9-0.7,7.7-1.7,11.4c-1.1,4-2.3,7.9-3.4,11.9
			c-1.2,4.4-1.5,8.7-2.5,13.1c-0.6,3,3.5,4.1,4.6,1.3c1.6-4,3.6-7.7,5-11.9c0.6-1.7,1.1-3.3,1.6-5c1.9,0.4,4.1-0.7,4.2-3.2
			c0.3-5.9,0.5-11.8,0.5-17.7c0.7-0.5,1.2-1.3,1.3-2.4c0.7-7.7,1.5-15.4,2.1-23.1c0.5-1,1-2.1,1.5-3.1c3.8-7.7,7.5-15.4,11.3-23.1
			c1.3-2.6-0.6-5.6-3-6.1c0.6-0.8,1.2-1.7,1.9-2.5c2.4-3.1-2-7.2-5.2-5.6c0.4-0.9,0.8-1.8,1.2-2.7c1.4-3.2-1.4-6.8-4.4-6.1
			c0-0.1,0-0.2,0-0.3c1.7-3.4,3.5-6.8,5.2-10.2c1-1.9,0.4-3.7-0.8-4.9c0.1-0.1,0.2-0.3,0.3-0.4c1,2.5,4.7,3.9,7.2,1.7
			c8.1-7.2,16.3-14.3,24.4-21.5c-2.5,3.8-4.9,7.8-7.2,11.7c-2.4,4.2,3.4,9,6.9,5.3c3.9-4.2,7.9-8.4,11.8-12.6
			c1.2,1.8,3.9,2.6,6.1,1.6c1.2-0.5,2.3-1.1,3.4-1.6c-0.8,0.8-1.7,1.6-2.5,2.3c-3.3,3.1,1,8.9,4.9,6.4c2-1.3,3.9-2.6,5.9-3.9
			c-5.8,6.8-11.6,14.1-14.4,22.6c-0.8,2.3,1.7,4.6,3.8,4.3c-2.4,5.5-4.2,11.2-4.5,17.4c-0.2,3.1,3.8,3.8,5.5,1.8
			c1,1.9,3.8,3.1,5.5,1c1-1.2,1.9-2.3,2.9-3.5c-0.9,1.9-1.7,3.8-2.6,5.7c-2.1,4.6,4,8.3,6.9,4c2.6-3.9,5.3-7.9,7.9-11.8
			c-2,6-4.1,12-6.2,18c-2.7,7.3-5.5,14.6-8.5,21.8c-3,7.2-6.4,14.2-8.5,21.6c-1.1,3.7,4,5.6,6,2.5c4.3-6.5,7.1-13.8,10.1-21
			c3-7.4,5.9-14.8,8.7-22.3c5.2-14.2,9.8-28.5,13.8-43.1c0.2-0.1,0.4-0.3,0.5-0.5c0.3-0.3,0.6-0.7,1-1.1c0.2,0.8,0.5,1.6,0.8,2.3
			c0.8,1.9,2.3,3.4,4.5,3.4c0,0,0.1,0,0.1,0c-0.4,2.8-0.7,5.6-1.1,8.4c-0.2,1.8,1.5,3.6,3,4c1.9,0.5,3.6-0.4,4.7-1.9
			c0.8-1.2,1.7-2.3,2.5-3.5c0,0,0,0,0.1,0c1.5,3.4,2.4,7.1,2.8,10.9c0,0.2,0,0.5,0.1,0.7c0.2,2.7,0.3,5.5,0.2,8.3
			c-0.3,3.5-0.5,6.9-0.8,10.4c-0.1,0.9,0.1,1.7,0.5,2.3c-0.2,1.2-0.4,2.3-0.6,3.5c-1.1,5.9-2.4,11.7-3.8,17.4
			c-1.5,6.1-3.4,12.1-2.8,18.4c0.2,2.6,3.4,3.5,4.8,1.3c3.5-5.3,4.8-11.4,6.2-17.5c1.4-6.2,2.7-12.3,3.7-18.6
			c2.1-12.4,3-24.9,2.2-37.5c-0.2-2.8-2.5-4.1-4.6-3.8c-0.3-0.3-0.7-0.5-1-0.8c-0.5-1-1.1-2-1.7-2.9c0.1-0.6,0.3-1.2,0.3-1.6
			c0.1-1.1,0.2-2.2,0.3-3.3c0.5-5.1,0.9-10.2,1.3-15.3c0.3-3.5-4.9-4.6-6.5-1.7c-0.5,1-1.1,1.9-1.6,2.9c-0.3-0.2-0.6-0.3-0.9-0.4
			c0.9-2.9,1.8-5.9,2.8-8.8c1.2-2,2.4-4,3.2-6.2c0.3-0.7,0.4-1.4,0.2-2.1c1.1,0.6,2.1,1.3,3.1,2c6.4,4.2,12.6,8.9,18.5,13.8
			c1.1,1,2.3,1.9,3.4,2.9c2.2,1.9,5.4-1.3,3.2-3.2c-5.3-4.6-10.6-9.2-16-13.8c12.5,8.7,25.5,16.8,39,24.1c1.6,0.9,3.1,0.1,3.7-1.2
			c6.4,3.8,12.8,7.3,19.5,10.6c3.3,1.6,6.3-2.2,3.9-5c-3-3.4-6.3-6.5-9.7-9.4c5.7,3.4,11.3,6.9,16.8,10.6c5.3,3.6,10.6,7.2,15.8,11
			c-0.5,0.9-0.5,2.1,0.4,2.9c2.8,2.6,6.1,3.7,9.8,2.9C921.8,292.2,922.9,288.4,920.8,286.5z M776.9,262.4c-0.1-0.1-0.2-0.2-0.3-0.3
			c0.3-0.2,0.6-0.4,0.9-0.6C777.3,261.8,777.1,262.1,776.9,262.4z M791.8,238C791.8,238,791.8,237.9,791.8,238
			c-0.2,0.3-0.4,0.6-0.5,0.9c-1.1-0.2-2.2-0.2-3.3-0.1c0.5-0.6,0.9-1.1,1.4-1.7c0.5-0.6,0.9-1.3,1-2c0,0,0,0,0.1,0
			c0.4,0.3,0.9,0.2,1.2,0c0.8,0.5,1.7,1,2.5,1.5C793.3,236.7,792.4,237.2,791.8,238z M758.2,241.3c-0.6,0.3-1.2,0.6-1.8,0.9
			c0.6-1,1.2-1.9,1.9-2.8c1.9-1.1,3.8-2.1,5.7-3.2C762,237.9,760.1,239.6,758.2,241.3z M607.7,293.3c-0.6,0.8-1.1,1.6-1.7,2.3
			c-0.8,1.1-0.8,2.1-0.3,3c-0.1,0.2-0.2,0.3-0.3,0.5c-0.7-0.1-1.4,0.1-2,0.4c-0.6,0-1.1,0.2-1.7,0.6c-1.4,1.1-2.9,2.2-4.3,3.3
			c-0.4,0.1-0.9,0.2-1.3,0.5c-1,0.5-1.9,1.1-2.8,1.8c-0.1,0-0.3-0.1-0.4-0.1c0.1-1.8-1.4-3.3-3.1-3.7c0-0.3,0-0.7,0.1-1
			c0-0.6,0.1-1.2,0.2-1.8c0.3-0.3,0.6-0.6,0.8-0.9c1-1,1.1-2.2,0.7-3.3c0.2-0.9,0-1.8-0.4-2.5c0,0,0,0,0,0c0.3-0.4,0.6-0.8,1-1.1
			c1.5-1.5,2.9-3,4.4-4.6c0.8,0.3,1.8,0.2,2.6-0.4c0.8,1.2,2.2,1.9,3.6,1.3c1.2-0.5,2.2-1.1,3.2-1.7c0,1,0.4,1.9,1.2,2.5
			c-0.1,0.6-0.2,1.3-0.4,1.9C606.5,291.5,607,292.6,607.7,293.3z M631.5,270.5c-0.1,0.1-0.1,0.1-0.2,0.2
			C631.4,270.6,631.4,270.5,631.5,270.5C631.5,270.4,631.5,270.5,631.5,270.5z M674.4,257.6c0.1,0,0.1,0,0.2,0.1
			c-1.9,1.9-3.7,3.9-5.5,6c0,0,0-0.1,0-0.1C670.9,261.6,672.7,259.6,674.4,257.6z M736.8,233c0.7-0.5,1.3-1,2-1.4
			c-1.2,1.1-2.4,2.1-3.6,3.2C735.8,234.1,736.3,233.6,736.8,233z M767.6,264.1c0.9,0.7,2,1.1,3.1,1c-4.8,7.2-9.6,14.3-14.4,21.5
			C759.6,279,764.2,271.7,767.6,264.1z M565.3,308.1c-5.1-2.2-2.3-9.7-0.5-12.9c1.6-2.8,3.4-5.6,5.1-8.4c1.4-1,1.9-2.8,2.8-4.4
			c0.8,0.8,1.7,1.5,2.7,2.1c-1.2,2.3-2.3,4.9-2.2,7.4c-0.8-0.3-1.8-0.3-2.6,0.3c-0.9,0.6-1.8,1.1-2.4,1.9c-0.4,0.6-0.8,1.2-0.8,2
			c0,0.1,0,0.2,0,0.3c0.1,0.5,0.2,1,0.6,1.4c0.8,0.7,1.5,1,2.6,0.9c0.9,0,1.6-0.3,2.4-0.6c1.3-0.5,2.3-1.6,2.4-2.9
			c0.4,0,0.7-0.1,1.1-0.2c-0.5,1.7-1.1,3.3-1.8,4.9c-0.1,0.3-0.3,0.7-0.5,1.1c-2.1,2.4-4.1,4.8-6.1,7.2
			C567.2,308.5,566.2,308.6,565.3,308.1z M545.5,354.1C545.5,354,545.5,354,545.5,354.1c0.7-0.9,1.4-1.8,2-2.6
			c0.1,0.2,0.1,0.3,0.2,0.5c-0.8,0.8-1.5,1.6-2.1,2.5c-0.1,0-0.3,0-0.5,0C545.3,354.3,545.4,354.2,545.5,354.1
			C545.5,354.1,545.5,354.1,545.5,354.1z M576.8,339.1c0,0,0.1-0.1,0.1-0.1c0,0.1,0,0.3,0,0.4C576.9,339.3,576.9,339.2,576.8,339.1z
			"/>
		<path class="st0" d="M567.5,296.8c0-0.1,0-0.3-0.1-0.4c0,0,0-0.1,0-0.1C567.5,296.5,567.5,296.6,567.5,296.8z"/>
		<path class="st0" d="M544.7,337.8c0.7,0.1,1.5-0.7,1.4-1.4c-0.3-2.7-2.9-4.3-4.9-5.9c-2.4-1.9-4.7-4-7-6c-1.1-1-2.6,0.5-1.6,1.6
			c2.1,2.3,4.2,4.6,6.1,6.9C540.3,335,541.9,337.6,544.7,337.8z"/>
		<path class="st0" d="M542,342c0.3-0.3,0.5-0.9,0.3-1.3c-0.2-0.6-0.5-0.9-0.9-1.2c-1.9-2.2-5.7-0.6-7.3,1.1c-1.2,1.3,0,4.1,1.9,3.3
			c0.7-0.3,1.6-0.5,2.3-0.7c0.9-0.2,1.9-0.3,2.7-0.8C541.4,342.4,541.7,342.2,542,342z"/>
		<path class="st0" d="M602.4,292.7c-0.6-0.6-1.5-1.1-2.4-1c-1.2,0.1-2.2,0.5-3,1.5c-0.6-0.1-1.3,0.1-1.9,0.4
			c-1.3,0.7-2.1,2.1-2.2,3.6c0,1.9,1.3,3.5,3.2,3.9c1.9,0.3,3.5-0.4,4.8-1.7c1.1-1.1,2.5-2.6,2.3-4.3
			C603.3,294.2,603.1,293.3,602.4,292.7z M595.9,294.5C595.7,294.7,595.6,294.7,595.9,294.5L595.9,294.5z"/>
	</g>
	<path class="st0" d="M136.3,204c-3.5-12.3-6.5-25.1-11.7-36.9c-2.5-5.7-5.5-11.3-9.2-16.4c-1.4-1.9-3-3.9-4.7-5.7
		c9.7-7,19.6-13.8,29.8-20.4c7-2.8,8.6-12,5.1-17.4c-3.6-5.6-13-8.5-19.4-4.6c-13.4,8.2-26.4,17.6-38.4,27.5
		c-6.6,7.8-13.1,15.7-19.7,23.5c-6.2,8.7-12.3,17.5-18.3,26.3c2.4,2.5,7,3.6,10.3,1.9c8.1-4.1,14.9-9.5,21.8-15
		c3.7-3,7.4-5.8,11.2-8.7c0.8,1.5,1.7,3,2.4,4.6c2,4.4,3.4,9.4,4.9,14.1c4.1,12.2,7.1,24.8,10.3,37.2c5,20,9.8,40,14,60.1
		c-0.2,1.1-0.2,2.2,0.1,3.3c0.1,1.7,0.7,3.3,1.5,4.8c0.8,4.1,1.7,8.2,2.4,12.4c1,5.4,7.9,9.3,13.6,9.3c5.6,0,12.8-3.9,13.6-9.3
		s0.4-10.8-1.7-15.5C149.3,253.9,143.4,228.8,136.3,204z"/>
	<path class="st0" d="M224.4,201.6c-9.3-10.6-26.9-15.1-37-2.6c-1,1.2-1.8,2.5-2.4,3.9c-2.1-7.6-4.2-15.2-6.7-22.7
		c-1.9-5.7-3.8-11.4-5.7-17.1c-2-5.7-4.9-11.1-7.3-16.7c-1.8-4.2-10-4.1-9.5,1.2c0.5,5.8,0.3,11.8,1.2,17.6
		c0.9,5.9,1.9,11.9,2.9,17.8c1.9,11.5,4.6,22.9,7,34.4c4.9,23.2,10.2,46.2,15.4,69.3c1.1,4.8,6.8,8.2,12,8.2c5.8,0,10.1-3.6,12-8.2
		c1.5-3.6,0.8-7.5-1.3-10.7c-4.6-17.4-9.3-34.8-14.1-52.2c2.6-1.9,4.4-4.7,6.1-7.3c1.5-2.4,3.2-5.7,4.9-7.2
		c-0.1,0.2,0.7-0.3,0.6-0.5c0.5,0.2,1.8,1.3,2.4,1.8c6.8,6.1,9.4,15.9,12.2,23.8c1.7,5,3.2,10,4.5,15.1c0.7,2.7,1.3,5.4,1.8,8.1
		c0.2,1.1,0.3,2.2,0.6,3.3c0,0,0,0,0,0c-0.6,1.5-0.7,3.3-0.1,5.2c3.5,10.9,19.7,8.7,23.1-1.1c2.3-6.7-1.5-15.9-3.4-22.5
		C239.4,228.6,234.4,212.9,224.4,201.6z"/>
	<path class="st0" d="M267.8,267.6c6-0.8,9.8-5,10.2-10.4c0.2-2.9,0.1-5.9-1.1-8.6c-0.3-0.8-0.7-1.5-1.2-2.2
		c-3.1-13.2-6.3-26.5-9.6-39.6c-2-7.7-3.7-15.6-6.5-23.2c-1.5-4-3.7-7.6-5.8-11.4c-1.1-2-2.1-3.9-4.2-4.7c-0.1-0.1-0.2-0.3-0.2-0.4
		c-1.3-2.6-5.6-1.1-5.6,1.4c0,0,0,0.1,0,0.1c-1.8,1.7-1.5,4.3-1.7,6.8c-0.3,4.2-0.6,8-0.1,12.2c1,8.1,2.6,16.2,4.2,24.2
		c3,16.1,5.9,32.2,8.8,48.3C255.8,265.1,262.6,268.3,267.8,267.6z"/>
	<path class="st0" d="M233.3,151.6c3.3,2.1,8.1,1.7,11.4,0c0.3-0.1,0.5-0.3,0.8-0.4c4.1-2.1,6.6-7.2,5.1-11.3
		c-0.6-1.6-1.6-3.1-2.9-4.4c-1.8-1.7-5.2-3.1-7.9-2.9c-0.3,0-0.6,0-0.9,0c-2.6,0.1-4.8,0.8-6.9,2.2c-0.9,0.5-1.5,1.1-2,1.8
		c-1,1-1.7,2.1-2,3.5c-0.3,0.6-0.3,1.3-0.4,2c-0.4,2.7,0.5,5.4,2.7,7.4C231.3,150.3,232.3,150.9,233.3,151.6z"/>
	<path class="st0" d="M355.9,248.5c-0.2,1.1-0.1,2.3,0.4,3.5c2.3,5.7,8.1,9.5,15.1,7.7c8.2-2.1,11-10.3,7.8-16.8
		c-4.7-9.8-13.2-18.9-20.5-27.2c-4.8-5.4-12.8-14.8-21.6-20.5c2.1-1.9,4-4.1,5.6-6.4c7.8-11.1,7.9-25.4,1.5-37
		c-6.2-11.2-19.7-19.4-34-17.4c-6.2,0.9-12,3.3-16.5,7.2c-4.5,3.9-6.2,9.8-7.4,15.2c0,0.1,0,0.2,0,0.3c-1.8,0.3-3.3,1.3-3.6,3.2
		c-2.8,13.8,3.5,28.7,6.7,42.2c2.8,11.7,4.8,23.6,6.2,35.5c-0.1,3,0.5,6,1.1,9.2c2.2,11.5,24.2,9,22.9-2.8
		c-1.4-12.6-3.6-25.1-6.5-37.5c2.9-0.5,5.7-1.2,8.4-2.2c1.1,1.1,2.2,2.2,3.3,3.3c4.4,4.6,8.4,9.7,12.4,14.6
		c4.3,5.3,8.3,10.7,12.1,16.2c1.8,2.5,3.5,5.1,5.2,7.7C354.9,247.1,355.4,247.8,355.9,248.5z M324.9,170.9c0,0.2,0,0.3,0,0.4
		c0,0.1-0.1,0.2-0.1,0.4c-0.2,1-0.5,2-0.9,3c-0.3,0.6-1.5,2.8-2.3,3.8c-3.4,4.3-8.9,6.7-14.1,7.1c-2.8-9.1-6.7-18.2-13.3-24.8
		c0.2-0.2,0.5-0.5,0.7-0.8c1.1-1.7,1.3-2.3,3.2-3.1c1.4-0.6,3-1.1,4.5-1.6c3.6-1.2,5.8-1.7,9.3-1.5c3,0.2,4.4,0.2,7.3,2.3
		c1.1,0.8,3.6,4.1,4.2,5.6C324.9,165.3,325.3,167.2,324.9,170.9z"/>
	<path class="st0" d="M362.6,174.2c10.9,7.4,24.9,7.3,37.9,6.8c2.8-0.1,5.6-0.2,8.3-0.1c3,0.1,2.6,0.1,5.2,0.6
		c2.5,0.5,4.4,1,5.5,1.5c0.9,0.4,1.9,0.9,2.8,1.5c-0.3-0.1,0.7,0.7,1.2,1.2c0.1,0.2,0.7,1,1.1,1.5c0,0.3,0.9,2.6,0.9,2.6
		c0.1,1-0.3,2.8-0.9,4.3c-1.8,4.4-5.4,8.1-8.9,11.4c-5.1,4.7-10.8,8.9-16.2,13.2c-6.1,4.9-13.1,9.3-17,15.8
		c-3.9,6.5,2.7,16.9,11.8,13.7c5.2-1.8,8.9-4.1,13-7.4c3.5-2.8,6.9-5.5,10.4-8.3c5.8-4.6,11.8-9.1,16.9-14.3
		c11.1-11.2,19.1-26.4,10.9-41c-6.5-11.5-20.6-16.2-34.1-17.2c-9.3-0.7-19.7,1.5-28.8-0.4c0.3-0.5,0.5-0.9,0.8-1.4
		c-1.2-1.5-1.7-3.6-0.8-5.3c2.8-5.2,5.3-10.2,9.8-14.4c0.9-0.9,2.1-1.2,3.3-1.2c0.1-0.2,0.3-0.4,0.4-0.6c0.8-1.2,2.1-1.8,3.4-2
		c0.1-0.1,0.2-0.2,0.3-0.3c1.1-1,2.3-1.4,3.4-1.3c-1.2-3.4-4.4-6.4-8.6-5.9c-19.6,2.2-33.6,18.5-37.4,35.1
		C356.2,167.5,358.2,171.3,362.6,174.2z"/>
	<path class="st0" d="M419.2,149.4c1.5,0.3,2.6,0.2,4.1,0.2c-2.2-0.1,3.3-0.1,3.4-0.2c3.6-0.7,6.7-2.7,9.9-4.2
		c5.3-2.5,10.5-5.3,15.8-7.9c9.3,27.7,18.3,55.3,22.8,84.2c0.8,4.9,7.4,7.9,12.3,7.2c5.5-0.7,9.6-4.8,9.7-9.9c0.1-6,0-12.3-2.2-18.1
		c-0.6-1.6-1.4-3.7-2.6-5.5c-5.4-22.5-13.4-44.7-25.5-64.9c1.9-0.9,3.8-1.7,5.7-2.5c6-2.5,13.2-4.1,16.6-9.3
		c5.1-4.4,1.1-14.4-6.4-13.8c-6.8-1.5-13.7,2.3-19.9,5c-6.6,2.9-13.2,6-19.4,9.6c-6.3,3.6-12.3,7.4-17.7,11.9
		c-2.6,2.2-5.7,4.4-7.5,7.2c-0.7,1-1.4,3.8-1.4,3.9c0.1-0.7-0.1-0.4-0.5,0.9c-0.2,0.8-0.3,1.6-0.2,2.4
		C416.1,147.4,417.4,149,419.2,149.4z"/>
	<path class="st0" d="M549.9,163.3c4.1-11.6,5.8-24.6,3.6-36.6c-2-10.5-20.1-7.7-20.2,2.5c-0.1,8.6,0.1,16.9-2,25.4
		c-0.9,3.5-1.7,7.9-3.8,11c-1,1.5-0.7,1.6-2.2,0.9c-6.9-3.5-10.5-9.5-13.9-15.7c-1.9-3.5-3.2-7.1-4.4-10.9
		c-1.2-3.8-2.7-7.4-3.9-11.2c-1.1-3.3-5.6-2.8-6.9,0c-4.7,10.3-3.5,22,1,32.3c4.5,10.2,12.3,20.3,24.9,23c2.8,0.6,5.6,0.7,8.4,0.2
		c-0.3,6.9-0.5,13.8-0.8,20.7c-0.3,10,0.6,21.3-3.2,31c-1.3,7.6-6.6,13.8-15.4,16.7c-0.3,0.1-0.5,0.1-0.8,0.2
		c-1.4,0.5-3,0.8-4.5,1.1c-2,0.3-4.2,0.4-6.5,0.3c-0.4,0-0.7-0.1-1.1-0.2c-0.1,0.3-0.2,0.6-0.3,0.8c-1.2,3.8,0.9,7.4,4.3,9.6
		c3.8,2.4,6.1,4.2,11.3,4.2c3.3,0,6.6-0.6,9.6-1.7c6.9-2.3,12.6-6.4,17-11.6c9.3-11,10.5-25.3,10.5-38.6c0-14.5-0.2-29-0.6-43.6
		C550.1,169.9,550,166.6,549.9,163.3z"/>
	<path class="st0" d="M331.1,308.5c-7.2-10.5-17.7-21.2-31.3-24.6c-7.6-1.9-15.7-1.6-22.8,1.3c-2.3,0.9-4.5,2.1-6.4,3.5
		c-0.5-0.5-1.1-0.9-1.6-1.3c-3.2-2.4-9.8-2.1-10.6,2.5c-0.4,2.5-1,4.6-0.7,7.1c0.3,2.4,0.7,4.9,1.2,7.3c1.2,5,3.1,9.9,4.8,14.8
		c3.4,9.6,6.8,19.1,10.2,28.7c3.3,9.3,6.5,18.6,9.5,28c3.3,10,5.3,21.5,10.6,30.7c4.1,7.1,15.2,6.7,20.4,1.6
		c1.2-0.3,2.4-0.8,3.4-1.8c2.1-2,4.1-4.2,5.8-6.4c7.7-4.5,13.3-12.9,16.3-20.2c4.6-11.1,5.9-23.8,4.4-35.5
		C342.8,331.6,338.6,319.4,331.1,308.5z M286.3,314.5c-1.8-4-3.5-8.1-5.5-12.1c1.5-0.3,3-0.5,4.7-0.7c5.2-0.3,9.1,0.1,13.4,3.1
		c9.1,6.3,15.7,17,19.3,26.6c3.7,10,5,21,2.9,31.4c-1.1,5.2-2.6,10.6-5.6,15.2c-0.9,1.3-1.9,2.4-3.1,3.4c-1.3-3.6-2.8-7.2-4-10.7
		c-3.4-9.6-6.9-19.1-10.6-28.6C294.1,332.8,290.3,323.6,286.3,314.5z"/>
	<path class="st0" d="M395.9,301.7c-8-3.5-17.8-3.4-25.5,0.8c-5.4,3-9.4,7.6-10.5,12.8c-7.4,11.1-7.3,28.2-2.3,39.9
		c5.2,12.2,18.5,24.7,34.4,23c18.4-2,21.5-25.5,21.7-38.7C413.7,326.2,410.9,308.3,395.9,301.7z M389.6,356.1
		c-0.4,1.3-0.9,2.6-1.4,3.9c-1-0.3-3.1-1.1-4.1-1.6c-4.6-2.3-7.6-6.1-10-10.2c-3.6-6.3-3.8-13.2-4.2-20.1c1.6-0.3,3.2-0.9,4.3-1.9
		c2.7-2.3,5-7.2,8.9-7.9c3-0.6,5.3,1.4,6.5,4C394.4,332.5,392.9,345.8,389.6,356.1z"/>
	<path class="st0" d="M494.5,321.1c-2-7.9-4.5-15.8-6.5-23.7c-0.1-0.3-0.2-0.5-0.3-0.7c-0.8-8.4-4.3-16.1-13.1-21.6
		c-2.8-1.7-6.3-3-10.1-3.8c-7.3,1.4-14.4,3.4-21.2,6.4c-0.7,0.3-1.4,0.5-2,0.5c-1.3,0.9-2.6,1.8-4,2.6c-1.9,1.5-3.9,3-5.8,4.5
		c-0.1,0.5-0.1,1-0.1,1.5c-1.8,1.5-3.5,3.2-4.7,4.9c-5.4,7.2-8,16.8-9.5,25.2c-1.6,9-1.1,18.3,4.1,26.4c4.7,7.4,12.8,12.9,22.3,13.9
		c16.5,1.8,28-8.1,34.8-20.2c0,1.2,0,2.3-0.1,3.5c-0.5,12.2-2.3,24.6-7.4,36c-4.2,9.4-11.1,18.4-20.6,24.1
		c-4.8,2.9-9.8,5.1-15.2,6.6c-5.9,1.7-11.2,1.8-17.2,2.3c-4.3,0.4-9.3,2.6-10.1,6.9c-0.2,0.8-0.3,1.7-0.4,2.5
		c-0.5,4.3,3.7,7.8,7.7,9.1c14.6,4.8,33.1-0.3,45.4-7.8c13.2-8.2,22.7-19.5,28.8-32.7c6.1-13.1,8.9-27.7,8.2-41.8
		C497.2,337.7,496.5,329.2,494.5,321.1z M464.9,311.6c-1.5,6.9-2.8,14.4-7,20.4c-2.6,3.7-7.6,8.2-13,7.1c-5.6-1.2-8.6-7.2-9.3-11.9
		c-0.2-1.2-0.3-2.3-0.3-3.5c-2.2-5.5-1.9-11.7,0.5-17c0.3-3,1.2-5.9,3.2-8.4c0.5-0.6,1.1-1.2,1.7-1.7c2.2-3.3,5.7-5.9,10.9-6.8
		c1.3-0.2,2.7,0,3.9,0.5c0.7-0.1,0.8-0.1,0.1,0.1c0.1,0,0.1,0.1,0.2,0.1c0.9,0,2.6,0.1,2.6,0c1,0.2,3.1,0.8,2.5,0.5
		c0.8,0.3,1.6,0.8,2.4,1.2c-0.9-0.5,1.4,1.8,1.1,1.3C467.9,298.7,466.1,306,464.9,311.6z"/>
</g>
</svg>
