<?xml version="1.0" encoding="utf-8"?>
<!-- Generator: Adobe Illustrator 21.1.0, SVG Export Plug-In . SVG Version: 6.00 Build 0)  -->
<svg version="1.1" id="Слой_1" xmlns="http://www.w3.org/2000/svg" xmlns:xlink="http://www.w3.org/1999/xlink" x="0px" y="0px"
	 viewBox="0 0 872.1 311.8" style="enable-background:new 0 0 872.1 311.8;" xml:space="preserve">
<style type="text/css">
	.st0{fill:#FFFFFF;}
</style>
<g>
	<g>
		<path class="st0" d="M871,176.2c-25.4-20.8-56-35.4-86.3-48.6c-8.8-3.8-17.6-7.5-26.4-11.3c-3.1-1.3-5.5,1.4-4.6,3.7
			c-0.5-0.2-1-0.5-1.4-0.7c-1.6-0.8-3.4,0.3-3.9,1.6c-1.9,0.1-3.6,2.3-1.7,3.8c0.8,0.7,1.7,1.3,2.5,2c-3-1.5-6.2-2.8-9.4-3.8
			c0.3-0.3,0.6-0.5,0.9-0.8c2.7-2.4,0.1-6.7-3.1-6.5c0,0,0,0,0,0c2.5-3.2-2.2-6.8-5.4-5.1c-0.4,0.2-0.8,0.4-1.2,0.6
			c4.6-3.9,9.2-7.8,13.8-11.7c3.1-2.6-0.2-8-4.1-6.7c-2.6,0.9-5.2,1.9-7.7,3c0-2.5-2.2-4.9-5.4-4.1c-5.7,1.5-10.9,4.1-15.9,7.2
			c-0.8-1.5-2.5-2.5-4.8-2.2c-4.4,0.6-8.3,1.9-12,3.6c-0.8-1.6-2.8-2.8-4.7-1.5c-1.8,1.2-3.6,2.5-5.5,3.7c3.6-3.3,7.2-6.6,10.8-9.8
			c2-1.7-0.9-4.2-2.9-2.7c-1.1,0.8-2.2,1.7-3.3,2.6c-2.7,2.1-5.5,4.3-8.2,6.4c-0.9-0.2-1.8-0.2-2.7,0.3c0,0,0-0.1,0-0.1
			c6.7-5.5,13.6-10.8,20.6-16c2-1.5-0.6-4.6-2.7-3.3c-8.5,5.3-17,10.8-25.3,16.4c4.6-4.5,9.2-9,14-13.3c0.6-0.5,1.2-1.1,1.7-1.6
			c0.9-0.9-0.4-2.1-1.4-1.3c-9.9,7.9-19.3,16.3-28.3,25c-0.6,0.6-1.1,1.1-1.7,1.7c-1.4,0.8-2.7,1.7-4,2.5c-1.1,0.2-2.1,0.4-3,0.8
			c5.4-5.5,10.9-10.9,16.7-16.1c0.9-0.8,0.1-1.9-0.8-2c0.4-0.4,0.8-0.8,1.1-1.2c2.9-3-1.6-7.2-4.7-4.4c-7.6,6.9-14.8,14-21.7,21.5
			c1.5-2.5,3.2-4.8,4.9-7.2c2.1-2.9,3.7-6,5.8-8.8c0.7-0.9-0.7-2.1-1.6-1.5c-3.1,2.1-6.5,4-9.2,6.8c-2.4,2.5-4.6,5.3-6.7,8
			c-0.6-1-1.9-1.7-3.2-1.1c1-1.9,2-3.7,3-5.6c1.4-2.2,2.8-4.5,4.1-6.8c0.3-0.5,0.3-1,0.2-1.5c1.2-2.2,2.3-4.5,3.5-6.7
			c0.9-1.8-1.6-3.2-2.8-1.6c-2.1,2.9-4.1,5.8-6.2,8.8c-5.1,5.2-9.8,10.9-14.1,16.9c-0.7-1-2.3-1.3-3.6-0.4c-0.7,0.5-1.4,1.1-2.1,1.6
			c2.6-4.6,5.3-9.3,8-13.9c0.8-1.5-1.4-2.7-2.4-1.3c0,0,0,0.1-0.1,0.1c-0.6-0.6-1.5-0.9-2.5-0.5c-3.9,1.6-6.7,5.4-9.3,8.5
			c-2.6,3.2-5.1,6.5-7.3,10c-0.7,1-1.3,2.1-2,3.2c-1.5,1.6-3,3.3-4.4,4.9c-0.2,0-0.4-0.1-0.5-0.1c0.1-0.2,0.1-0.4,0.2-0.5
			c0.7-2-2.5-2.7-3.2-0.8c-0.5,1.4-1.1,2.8-1.7,4.1c-0.5,0.6-0.9,1.2-1.3,1.9c-1.2-0.2-2.5,0.1-3.1,1.4c-0.9,1.8-1.8,3.7-2.6,5.5
			c-1.1,0-2.3,0.5-3.2,1.8c-4.4,6.2-7.8,13-10.2,20.1c-0.3-0.2-0.6-0.3-1-0.4c0.6-1.3,1.1-2.7,1.5-4.1c0.7-2.1-0.6-3.6-2.3-4.1
			c0.2-1.6,0.4-3.3,0.4-5c0-1-0.5-1.7-1.2-2.2c1.5-3.7,2.9-7.4,4.3-11.1c1-2.6-3.4-4.3-4.7-1.9c-4,7.6-7.9,15.2-11.9,22.8
			c-1,0-2,0.2-2.8,1c-2.9,2.5-5.7,5.2-8.4,8c-1.2-1.7-3.6-2.5-5.3-1.3c-0.1-1.6-0.4-3.2-0.9-4.7c-0.4-1.4-1.6-2.2-2.9-2.4
			c0.1-2.2,0.1-4.4,0-6.5c0-0.8-0.3-1.4-0.8-1.9c0.5-4.3,0.7-8.7,0.5-13.1c-0.1-1.5-2.6-2-2.9-0.4c-0.9,4.6-1.8,9.3-2.8,13.9
			c-0.1,0.2-0.2,0.4-0.3,0.7c-2.1,7.2-4.3,14.4-6.3,21.6c-0.5,1.8,0.6,3.1,2.1,3.5c-0.1,0.2-0.2,0.4-0.2,0.7
			c-2.8,2.8-5.1,6.2-7.4,9.3c-2.4,3.3-4.8,6.7-6.2,10.5c-2.4,6.4-0.6,14.9,6.5,17.8c-3.1,3.8-6.2,7.6-9.1,11.6
			c-0.6,0.8-0.7,1.7-0.4,2.5c-3.3,3.5-6,7.7-7,12.3c0,0.1-0.1,0.1-0.1,0.2c-0.9,1.2-0.8,2.3-0.1,3.2c-1.2,1.7-2.5,3.3-3.7,4.9
			c-1,1.2,0.2,2.6,1.5,3c-0.7,0.7-0.9,1.9-0.4,2.7c-0.3,0.3-0.6,0.5-0.9,0.8c-0.5,0.4,0.2,1.2,0.7,0.9c0.4-0.3,0.8-0.6,1.2-0.9
			c0.1,0,0.2,0.1,0.3,0.1c3,0.5,5.9,0.4,8.8-0.7c1.5-0.5,2.2-2,1.4-3.3c-0.5-0.9-0.8-1.9-1.1-2.8c0.5-0.5,1-1,1.5-1.5
			c0,0,0.1-0.1,0.1-0.1c0.2-0.1,0.3-0.3,0.4-0.4c1.2-1.2,2.5-2.4,3.7-3.6c0,0.6,0,1.3,0,1.9c-0.2,0.3-0.5,0.6-0.7,0.8
			c-1,1-2.1,1.8-3.1,2.9c-1.1,1.1,0.4,3.2,1.8,2.2c0.8-0.6,1.7-1.2,2.4-1.8c0.6,0.9,1.6,1.4,2.7,1.5c0.2,1.2,0.5,2.4,0.9,3.4
			c0.8,1.8,3.9,1.8,3.9-0.5c0-1.6-0.3-3.3-0.6-4.9c0.3-0.3,0.5-0.8,0.6-1.3c0.2-0.7,0.4-1.5,0.6-2.2c0.8,0.2,1.6,0.3,2.3,0.1
			c-0.1,0.3-0.1,0.5-0.2,0.8c-0.1,0.6,0.6,1,1.1,0.6c0.6-0.6,1.1-1.2,1.5-1.9c0,0.3,0.1,0.5,0.2,0.8c0.4,1.2,2.1,1.2,2.5,0
			c0.4-1.3,0.1-2.5,0-3.8c-0.1-0.9-0.2-1.8-0.2-2.7c0,0,0,0,0.1-0.1c0.2,0.4,0.6,0.7,1.2,0.7c0.7,0,1.3-0.5,1.3-1.2
			c0-0.1,0-0.1,0-0.2c0.1,0.5,0.3,0.9,0.6,1.3c0.7,1.1,2.3,1.1,3,0c0.9-1.4,0.9-3.1,0.7-4.8c0.4-0.5,0.7-1.1,0.7-1.9
			c0-0.3,0-0.6,0-0.9c1.3-1.1,2.6-2.3,3.9-3.4c-0.1,1.1,0.7,2.1,1.7,2.7c-1.9,2.4-3.8,4.8-5.7,7.2c-4.9,6.2-10,12.2-14.3,18.7
			c-1,1.5,1.2,3,2.5,1.8c5.9-5.5,11-11.6,16.1-17.8c2.5-3,4.9-6,7.3-9.1c0.4-0.5,0.7-0.9,1.1-1.4c1,0.2,2,0,2.9-1
			c3.2-3.5,6.4-6.9,9.5-10.4c1.2-1.4,1.1-2.9,0.3-4c1.1-1.5,2.3-3,3.4-4.5c1.9-1.5,3.8-3,5.4-4.7c0.8-0.8,0.6-1.8-0.1-2.4
			c0.8-1.1,1.7-2.2,2.6-3.3c0.8-0.9,1.5-1.8,2.3-2.6c-0.5,1.4,0.2,2.9,1.3,3.7c-1.5,2-2.9,4-4.3,6c-2.4,3.4,3.2,6.3,5.7,3.1
			c5.5-6.9,11.2-13.5,17-20.1c-1.1,4.2-2.1,8.5-3,12.7c-3.2,8.9-5.8,17.9-6.3,27.4c0,0.5,0,0.9,0.2,1.3c-0.9,4.4-1.9,8.8-2.8,13.3
			c-0.7,1.6-1.3,3.2-1.9,4.8c0,0,0,0-0.1,0.1c-2,2.4-2.7,5.3-1.9,8c-0.3,2.2-0.3,4.5-0.1,6.7c0.3,2.7,5,3.9,5.5,0.7
			c0.2-1,0.4-2,0.5-3c1.4-0.3,2.7-1.2,3-2.7c1.5-7,3-14,4.4-21c0.1-0.3,0.3-0.6,0.4-0.8c1.5,0.6,3.3,0.4,4.1-1.4
			c0.1-0.3,0.2-0.5,0.4-0.8c0,0,0,0,0,0c0,0,0,0,0,0c3-6.8,5.1-13.9,7-21.1c4.3-9.4,8.2-18.9,11.7-28.6c0.8-0.1,1.6-0.4,2.3-1
			c3.6-3.3,7.3-6.6,10.9-9.9c0,2.3,2.2,4.3,4.6,4.1c-1.3,2.3-2.6,4.6-3.9,7c-1.4,2.7,1.9,6,4.5,4.3c0.1,1.8,0.1,3.5,0.2,5.3
			c-0.2,0.3-0.3,0.6-0.5,0.9c-0.9,1.7-0.5,3.5,0.7,4.6c0.1,1.1,0.1,2.3,0.2,3.4c-0.2,0.7-0.3,1.3-0.5,2c-0.3,1.2,0,2.2,0.7,2.9
			c0.1,2.9,0.2,5.7,0.3,8.6c0,0,0,0.1,0,0.1c-1.3,2.4-2.6,4.8-3.8,7.3c-1.3,2.7,1.1,5.9,3.7,5.9c-0.1,1.4-0.1,2.8-0.2,4.2
			c-0.3,0.5-0.5,1-0.8,1.5c-1.6,3.2-3.5,6.3-2.9,9.9c0.5,3.4,2.4,6.2,2.6,9.7c0.1,3.7-0.7,7.3-1.7,10.8c-1.1,3.8-2.3,7.5-3.4,11.3
			c-1.2,4.1-1.5,8.2-2.5,12.4c-0.6,2.9,3.5,3.8,4.6,1.2c1.6-3.8,3.6-7.3,5-11.2c0.6-1.6,1.1-3.2,1.6-4.7c1.9,0.4,4.1-0.6,4.2-3
			c0.3-5.6,0.5-11.2,0.5-16.8c0.7-0.5,1.2-1.3,1.3-2.3c0.7-7.3,1.5-14.6,2.1-21.8c0.5-1,1-1.9,1.5-2.9c3.8-7.3,7.5-14.6,11.3-21.9
			c1.3-2.5-0.6-5.3-3-5.8c0.6-0.8,1.2-1.6,1.9-2.4c2.4-3-2-6.9-5.2-5.3c0.4-0.8,0.8-1.7,1.2-2.5c1.4-3-1.4-6.4-4.4-5.8
			c0-0.1,0-0.2,0-0.3c1.7-3.2,3.5-6.4,5.2-9.6c1-1.8,0.4-3.5-0.8-4.6c0.1-0.1,0.2-0.3,0.3-0.4c1,2.4,4.7,3.7,7.2,1.6
			c8.1-6.8,16.3-13.6,24.4-20.3c-2.5,3.6-4.9,7.3-7.2,11.1c-2.4,4,3.4,8.6,6.9,5c3.9-4,7.9-8,11.8-12c1.2,1.7,3.9,2.5,6.1,1.6
			c1.2-0.5,2.3-1,3.4-1.5c-0.8,0.7-1.7,1.5-2.5,2.2c-3.3,3,1,8.4,4.9,6c2-1.2,3.9-2.4,5.9-3.7c-5.8,6.4-11.6,13.3-14.4,21.4
			c-0.8,2.2,1.7,4.3,3.8,4.1c-2.4,5.2-4.2,10.6-4.5,16.5c-0.2,2.9,3.8,3.6,5.5,1.7c1,1.8,3.8,2.9,5.5,1c1-1.1,1.9-2.2,2.9-3.3
			c-0.9,1.8-1.7,3.6-2.6,5.4c-2.1,4.4,4,7.9,6.9,3.8c2.6-3.7,5.3-7.4,7.9-11.2c-2,5.7-4.1,11.4-6.2,17c-2.7,6.9-5.5,13.8-8.5,20.6
			c-3,6.8-6.4,13.4-8.5,20.5c-1.1,3.5,4,5.3,6,2.4c4.3-6.2,7.1-13.1,10.1-19.9c3-7,5.9-14,8.7-21.1c5.2-13.4,9.8-27,13.8-40.8
			c0.2-0.1,0.4-0.3,0.5-0.5c0.3-0.3,0.6-0.7,1-1c0.2,0.7,0.5,1.5,0.8,2.2c0.8,1.8,2.3,3.2,4.5,3.2c0,0,0.1,0,0.1,0
			c-0.4,2.6-0.7,5.3-1.1,7.9c-0.2,1.7,1.5,3.4,3,3.8c1.9,0.5,3.6-0.4,4.7-1.8c0.8-1.1,1.7-2.2,2.5-3.3c0,0,0,0,0.1,0
			c1.5,3.2,2.4,6.7,2.8,10.3c0,0.2,0,0.4,0.1,0.6c0.2,2.6,0.3,5.2,0.2,7.9c-0.3,3.3-0.5,6.6-0.8,9.8c-0.1,0.9,0.1,1.6,0.5,2.2
			c-0.2,1.1-0.4,2.2-0.6,3.3c-1.1,5.5-2.4,11-3.8,16.5c-1.5,5.8-3.4,11.4-2.8,17.5c0.2,2.4,3.4,3.3,4.8,1.2c3.5-5,4.8-10.8,6.2-16.6
			c1.4-5.8,2.7-11.7,3.7-17.6c2.1-11.7,3-23.6,2.2-35.5c-0.2-2.7-2.5-3.9-4.6-3.6c-0.3-0.3-0.7-0.5-1-0.7c-0.5-0.9-1.1-1.9-1.7-2.8
			c0.1-0.6,0.3-1.2,0.3-1.5c0.1-1,0.2-2.1,0.3-3.1c0.5-4.8,0.9-9.7,1.3-14.5c0.3-3.3-4.9-4.4-6.5-1.7c-0.5,0.9-1.1,1.8-1.6,2.7
			c-0.3-0.1-0.6-0.3-0.9-0.4c0.9-2.8,1.8-5.6,2.8-8.3c1.2-1.9,2.4-3.8,3.2-5.9c0.3-0.7,0.4-1.3,0.2-1.9c1.1,0.6,2.1,1.2,3.1,1.9
			c6.4,4,12.6,8.4,18.5,13.1c1.1,0.9,2.3,1.8,3.4,2.7c2.2,1.8,5.4-1.2,3.2-3c-5.3-4.4-10.6-8.7-16-13.1c12.5,8.3,25.5,15.9,39,22.8
			c1.6,0.8,3.1,0.1,3.7-1.1c6.4,3.6,12.8,6.9,19.5,10c3.3,1.5,6.3-2.1,3.9-4.7c-3-3.2-6.3-6.2-9.7-8.9c5.7,3.2,11.3,6.5,16.8,10
			c5.3,3.4,10.6,6.8,15.8,10.4c-0.5,0.9-0.5,2,0.4,2.7c2.8,2.5,6.1,3.5,9.8,2.7C872,181.6,873.1,177.9,871,176.2z M727.1,153.3
			c-0.1-0.1-0.2-0.2-0.3-0.3c0.3-0.2,0.6-0.4,0.9-0.6C727.4,152.7,727.3,153,727.1,153.3z M742,130.2C742,130.2,742,130.2,742,130.2
			c-0.2,0.3-0.4,0.5-0.5,0.8c-1.1-0.2-2.2-0.2-3.3-0.1c0.5-0.5,0.9-1.1,1.4-1.6c0.5-0.6,0.9-1.3,1-1.9c0,0,0,0,0.1,0
			c0.4,0.3,0.9,0.2,1.2,0c0.8,0.5,1.7,1,2.5,1.5C743.5,129,742.6,129.4,742,130.2z M708.4,133.3c-0.6,0.3-1.2,0.6-1.8,0.9
			c0.6-0.9,1.2-1.8,1.9-2.7c1.9-1,3.8-2,5.7-3C712.2,130.2,710.3,131.8,708.4,133.3z M557.9,182.6c-0.6,0.7-1.1,1.5-1.7,2.2
			c-0.8,1-0.8,2-0.3,2.8c-0.1,0.2-0.2,0.3-0.3,0.5c-0.7-0.1-1.4,0.1-2,0.4c-0.6,0-1.1,0.2-1.7,0.5c-1.4,1-2.9,2.1-4.3,3.1
			c-0.4,0.1-0.9,0.2-1.3,0.4c-1,0.5-1.9,1.1-2.8,1.7c-0.1,0-0.3,0-0.4-0.1c0.1-1.7-1.4-3.2-3.1-3.5c0-0.3,0-0.7,0.1-1
			c0-0.6,0.1-1.2,0.2-1.8c0.3-0.3,0.6-0.6,0.8-0.9c1-1,1.1-2.1,0.7-3.1c0.2-0.8,0-1.7-0.4-2.4c0,0,0,0,0,0c0.3-0.4,0.6-0.7,1-1.1
			c1.5-1.4,2.9-2.9,4.4-4.3c0.8,0.3,1.8,0.2,2.6-0.3c0.8,1.1,2.2,1.8,3.6,1.3c1.2-0.4,2.2-1,3.2-1.6c0,0.9,0.4,1.8,1.2,2.3
			c-0.1,0.6-0.2,1.2-0.4,1.8C556.7,180.9,557.2,181.9,557.9,182.6z M581.7,161c-0.1,0.1-0.1,0.1-0.2,0.2
			C581.6,161.1,581.6,161,581.7,161C581.7,161,581.7,161,581.7,161z M624.6,148.8c0.1,0,0.1,0,0.2,0.1c-1.9,1.8-3.7,3.7-5.5,5.6
			c0,0,0-0.1,0-0.1C621.1,152.5,622.9,150.7,624.6,148.8z M687,125.5c0.7-0.5,1.3-0.9,2-1.4c-1.2,1-2.4,2-3.6,3
			C686,126.6,686.5,126,687,125.5z M717.8,154.9c0.9,0.6,2,1,3.1,1c-4.8,6.8-9.6,13.5-14.4,20.3C709.8,169,714.4,162.1,717.8,154.9z
			 M515.5,196.6c-5.1-2-2.3-9.2-0.5-12.3c1.6-2.7,3.4-5.3,5.1-7.9c1.4-1,1.9-2.7,2.8-4.1c0.8,0.8,1.7,1.4,2.7,2
			c-1.2,2.2-2.3,4.6-2.2,7c-0.8-0.3-1.8-0.2-2.6,0.3c-0.9,0.5-1.8,1-2.4,1.8c-0.4,0.5-0.8,1.2-0.8,1.8c0,0.1,0,0.2,0,0.3
			c0.1,0.5,0.2,1,0.6,1.3c0.8,0.6,1.5,0.9,2.6,0.9c0.9,0,1.6-0.3,2.4-0.6c1.3-0.5,2.3-1.5,2.4-2.8c0.4,0,0.7-0.1,1.1-0.2
			c-0.5,1.6-1.1,3.2-1.8,4.7c-0.1,0.3-0.3,0.6-0.5,1c-2.1,2.3-4.1,4.5-6.1,6.8C517.4,197,516.4,197,515.5,196.6z M495.7,240.1
			C495.7,240.1,495.7,240.1,495.7,240.1c0.7-0.9,1.4-1.7,2-2.5c0.1,0.2,0.1,0.3,0.2,0.5c-0.8,0.7-1.5,1.5-2.1,2.4
			c-0.1,0-0.3,0-0.5,0C495.5,240.4,495.6,240.2,495.7,240.1C495.7,240.1,495.7,240.1,495.7,240.1z M527,226c0,0,0.1-0.1,0.1-0.1
			c0,0.1,0,0.3,0,0.4C527.1,226.1,527.1,226,527,226z"/>
		<path class="st0" d="M517.7,185.9c0-0.1,0-0.2-0.1-0.4c0,0,0-0.1,0-0.1C517.6,185.6,517.7,185.7,517.7,185.9z"/>
		<path class="st0" d="M494.8,224.7c0.7,0.1,1.5-0.7,1.4-1.3c-0.3-2.6-2.9-4.1-4.9-5.6c-2.4-1.8-4.7-3.8-7-5.7
			c-1.1-0.9-2.6,0.5-1.6,1.5c2.1,2.2,4.2,4.3,6.1,6.6C490.5,222,492.1,224.5,494.8,224.7z"/>
		<path class="st0" d="M492.2,228.7c0.3-0.3,0.5-0.8,0.3-1.2c-0.2-0.5-0.5-0.8-0.9-1.2c-1.9-2.1-5.7-0.6-7.3,1.1
			c-1.2,1.3,0,3.9,1.9,3.2c0.7-0.3,1.6-0.5,2.3-0.6c0.9-0.1,1.9-0.2,2.7-0.8C491.6,229.1,491.9,228.9,492.2,228.7z"/>
		<path class="st0" d="M552.6,182c-0.6-0.5-1.5-1-2.4-0.9c-1.2,0.1-2.2,0.4-3,1.4c-0.6,0-1.3,0.1-1.9,0.4c-1.3,0.7-2.1,2-2.2,3.4
			c0,1.8,1.3,3.3,3.2,3.7c1.9,0.3,3.5-0.3,4.8-1.6c1.1-1,2.5-2.5,2.3-4C553.5,183.5,553.3,182.6,552.6,182z M546.1,183.8
			C545.9,183.9,545.8,183.9,546.1,183.8L546.1,183.8z"/>
	</g>
	<path class="st0" d="M86.5,98.1C83,86.4,80,74.3,74.9,63.1c-2.5-5.4-5.5-10.7-9.2-15.6c-1.4-1.8-3-3.7-4.7-5.4
		c9.7-6.7,19.6-13.1,29.8-19.3c7-2.6,8.6-11.3,5.1-16.5c-3.6-5.3-13-8-19.4-4.3C63.1,9.8,50,18.7,38,28.1
		c-6.6,7.4-13.1,14.9-19.7,22.3C12.2,58.6,6,66.9,0,75.3c2.4,2.3,7,3.4,10.3,1.8c8.1-3.8,14.9-9,21.8-14.2c3.7-2.8,7.4-5.5,11.2-8.2
		c0.8,1.4,1.7,2.8,2.4,4.3c2,4.1,3.4,8.9,4.9,13.3c4.1,11.6,7.1,23.5,10.3,35.2c5,18.9,9.8,37.9,14,56.9c-0.2,1-0.2,2.1,0.1,3.1
		c0.1,1.6,0.7,3.1,1.5,4.6c0.8,3.9,1.7,7.8,2.4,11.7c1,5.1,7.9,8.8,13.6,8.8c5.6,0,12.8-3.7,13.6-8.8s0.4-10.2-1.7-14.7
		C99.5,145.3,93.6,121.5,86.5,98.1z"/>
	<path class="st0" d="M174.6,95.8c-9.3-10-26.9-14.3-37-2.4c-1,1.2-1.8,2.4-2.4,3.7c-2.1-7.2-4.2-14.4-6.7-21.5
		c-1.9-5.4-3.8-10.8-5.7-16.2c-2-5.4-4.9-10.5-7.3-15.8c-1.8-4-10-3.9-9.5,1.1c0.5,5.5,0.3,11.1,1.2,16.6c0.9,5.6,1.9,11.2,2.9,16.8
		c1.9,10.9,4.6,21.7,7,32.5c4.9,21.9,10.2,43.7,15.4,65.6c1.1,4.5,6.8,7.8,12,7.8c5.8,0,10.1-3.4,12-7.8c1.5-3.4,0.8-7.1-1.3-10.1
		c-4.6-16.5-9.3-32.9-14.1-49.4c2.6-1.8,4.4-4.4,6.1-6.9c1.5-2.2,3.2-5.4,4.9-6.8c-0.1,0.2,0.7-0.3,0.6-0.4c0.5,0.2,1.8,1.2,2.4,1.7
		c6.8,5.8,9.4,15,12.2,22.6c1.7,4.7,3.2,9.5,4.5,14.3c0.7,2.5,1.3,5.1,1.8,7.7c0.2,1,0.3,2.1,0.6,3.1c0,0,0,0,0,0
		c-0.6,1.4-0.7,3.1-0.1,4.9c3.5,10.3,19.7,8.3,23.1-1.1c2.3-6.3-1.5-15.1-3.4-21.3C189.6,121.3,184.6,106.5,174.6,95.8z"/>
	<path class="st0" d="M218,158.2c6-0.8,9.8-4.7,10.2-9.8c0.2-2.7,0.1-5.5-1.1-8.1c-0.3-0.7-0.7-1.4-1.2-2.1
		c-3.1-12.5-6.3-25-9.6-37.5c-2-7.3-3.7-14.8-6.5-22c-1.5-3.8-3.7-7.2-5.8-10.8c-1.1-1.9-2.1-3.7-4.2-4.4c-0.1-0.1-0.2-0.3-0.2-0.4
		c-1.3-2.4-5.6-1.1-5.6,1.3c0,0,0,0.1,0,0.1c-1.8,1.7-1.5,4.1-1.7,6.5c-0.3,4-0.6,7.5-0.1,11.5c1,7.7,2.6,15.3,4.2,22.9
		c3,15.2,5.9,30.5,8.8,45.7C206,155.9,212.8,158.9,218,158.2z"/>
	<path class="st0" d="M183.5,48.4c3.3,2,8.1,1.6,11.4,0c0.3-0.1,0.5-0.2,0.8-0.4c4.1-1.9,6.6-6.8,5.1-10.7c-0.6-1.6-1.6-3-2.9-4.2
		c-1.8-1.6-5.2-2.9-7.9-2.8c-0.3,0-0.6,0-0.9,0c-2.6,0.1-4.8,0.7-6.9,2.1c-0.9,0.4-1.5,1-2,1.7c-1,0.9-1.7,2-2,3.3
		c-0.3,0.6-0.3,1.2-0.4,1.9c-0.4,2.6,0.5,5.1,2.7,7C181.5,47.2,182.5,47.8,183.5,48.4z"/>
	<path class="st0" d="M306.1,140.2c-0.2,1.1-0.1,2.2,0.4,3.3c2.3,5.4,8.1,9,15.1,7.3c8.2-2,11-9.7,7.8-15.9
		c-4.7-9.2-13.2-17.9-20.5-25.7c-4.8-5.1-12.8-14-21.6-19.5c2.1-1.8,4-3.8,5.6-6c7.8-10.5,7.9-24,1.5-35
		c-6.2-10.6-19.7-18.4-34-16.5c-6.2,0.8-12,3.1-16.5,6.8c-4.5,3.7-6.2,9.3-7.4,14.4c0,0.1,0,0.2,0,0.3c-1.8,0.3-3.3,1.2-3.6,3
		c-2.8,13.1,3.5,27.2,6.7,39.9c2.8,11.1,4.8,22.3,6.2,33.6c-0.1,2.8,0.5,5.7,1.1,8.7c2.2,10.9,24.2,8.5,22.9-2.6
		c-1.4-11.9-3.6-23.8-6.5-35.5c2.9-0.4,5.7-1.1,8.4-2c1.1,1,2.2,2.1,3.3,3.1c4.4,4.3,8.4,9.2,12.4,13.8c4.3,5,8.3,10.1,12.1,15.3
		c1.8,2.4,3.5,4.8,5.2,7.3C305.1,138.8,305.6,139.5,306.1,140.2z M275.1,66.7c0,0.2,0,0.3,0,0.4c0,0.1-0.1,0.2-0.1,0.4
		c-0.2,0.9-0.5,1.9-0.9,2.8c-0.3,0.6-1.5,2.6-2.3,3.6c-3.4,4.1-8.9,6.3-14.1,6.8c-2.8-8.6-6.7-17.3-13.3-23.5
		c0.2-0.2,0.5-0.5,0.7-0.8c1.1-1.6,1.3-2.2,3.2-2.9c1.4-0.6,3-1.1,4.5-1.5c3.6-1.1,5.8-1.6,9.3-1.4c3,0.1,4.4,0.2,7.3,2.2
		c1.1,0.8,3.6,3.8,4.2,5.3C275.1,61.4,275.4,63.2,275.1,66.7z"/>
	<path class="st0" d="M312.8,69.8c10.9,7,24.9,6.9,37.9,6.4c2.8-0.1,5.6-0.2,8.3-0.1c3,0.1,2.6,0.1,5.2,0.6c2.5,0.5,4.4,1,5.5,1.5
		c0.9,0.4,1.9,0.9,2.8,1.4c-0.3-0.1,0.7,0.7,1.2,1.1c0.1,0.2,0.7,1,1.1,1.4c0,0.2,0.9,2.5,0.9,2.5c0.1,0.9-0.3,2.6-0.9,4.1
		c-1.8,4.2-5.4,7.7-8.9,10.8c-5.1,4.5-10.8,8.4-16.2,12.5c-6.1,4.6-13.1,8.8-17,15c-3.9,6.2,2.7,16,11.8,13c5.2-1.7,8.9-3.9,13-7
		c3.5-2.6,6.9-5.2,10.4-7.9c5.8-4.4,11.8-8.6,16.9-13.5c11.1-10.6,19.1-25,10.9-38.8c-6.5-10.9-20.6-15.3-34.1-16.3
		c-9.3-0.7-19.7,1.5-28.8-0.3c0.3-0.4,0.5-0.9,0.8-1.3c-1.2-1.4-1.7-3.4-0.8-5c2.8-4.9,5.3-9.6,9.8-13.6c0.9-0.8,2.1-1.2,3.3-1.2
		c0.1-0.2,0.3-0.4,0.4-0.5c0.8-1.1,2.1-1.7,3.4-1.9c0.1-0.1,0.2-0.2,0.3-0.3c1.1-0.9,2.3-1.3,3.4-1.3c-1.2-3.3-4.4-6-8.6-5.6
		c-19.6,2.1-33.6,17.5-37.4,33.2C306.4,63.5,308.4,67,312.8,69.8z"/>
	<path class="st0" d="M369.4,46.4c1.5,0.3,2.6,0.2,4.1,0.2c-2.2,0,3.3-0.1,3.4-0.1c3.6-0.6,6.7-2.6,9.9-4c5.3-2.4,10.5-5,15.8-7.5
		c9.3,26.3,18.3,52.4,22.8,79.7c0.8,4.6,7.4,7.4,12.3,6.8c5.5-0.7,9.6-4.5,9.7-9.3c0.1-5.7,0-11.7-2.2-17.1
		c-0.6-1.5-1.4-3.5-2.6-5.2c-5.4-21.3-13.4-42.3-25.5-61.4c1.9-0.8,3.8-1.6,5.7-2.4c6-2.4,13.2-3.9,16.6-8.8
		c5.1-4.2,1.1-13.6-6.4-13c-6.8-1.4-13.7,2.2-19.9,4.7c-6.6,2.7-13.2,5.7-19.4,9.1c-6.3,3.4-12.3,7-17.7,11.3
		c-2.6,2.1-5.7,4.1-7.5,6.8c-0.7,1-1.4,3.6-1.4,3.7c0.1-0.7-0.1-0.4-0.5,0.9c-0.2,0.7-0.3,1.5-0.2,2.2
		C366.3,44.4,367.6,46,369.4,46.4z"/>
	<path class="st0" d="M500.1,59.5c4.1-11,5.8-23.3,3.6-34.6c-2-9.9-20.1-7.3-20.2,2.3c-0.1,8.2,0.1,16-2,24
		c-0.9,3.3-1.7,7.5-3.8,10.4c-1,1.4-0.7,1.5-2.2,0.8c-6.9-3.3-10.5-9-13.9-14.9c-1.9-3.3-3.2-6.8-4.4-10.3c-1.2-3.6-2.7-7-3.9-10.6
		c-1.1-3.1-5.6-2.7-6.9,0c-4.7,9.7-3.5,20.9,1,30.6c4.5,9.6,12.3,19.3,24.9,21.7c2.8,0.6,5.6,0.6,8.4,0.2
		c-0.3,6.5-0.5,13.1-0.8,19.6c-0.3,9.5,0.6,20.2-3.2,29.4c-1.3,7.2-6.6,13.1-15.4,15.8c-0.3,0.1-0.5,0.1-0.8,0.2
		c-1.4,0.4-3,0.8-4.5,1c-2,0.3-4.2,0.4-6.5,0.3c-0.4,0-0.7-0.1-1.1-0.2c-0.1,0.3-0.2,0.5-0.3,0.8c-1.2,3.6,0.9,7,4.3,9
		c3.8,2.3,6.1,4,11.3,4c3.3,0,6.6-0.6,9.6-1.6c6.9-2.2,12.6-6,17-11c9.3-10.4,10.5-24,10.5-36.6c0-13.7-0.2-27.5-0.6-41.2
		C500.3,65.8,500.2,62.7,500.1,59.5z"/>
	<path class="st0" d="M281.3,197c-7.2-9.9-17.7-20-31.3-23.3c-7.6-1.8-15.7-1.5-22.8,1.2c-2.3,0.9-4.5,2-6.4,3.3
		c-0.5-0.4-1.1-0.8-1.6-1.2c-3.2-2.3-9.8-2-10.6,2.4c-0.4,2.3-1,4.4-0.7,6.8c0.3,2.3,0.7,4.6,1.2,6.9c1.2,4.8,3.1,9.4,4.8,14
		c3.4,9.1,6.8,18.1,10.2,27.2c3.3,8.8,6.5,17.6,9.5,26.5c3.3,9.5,5.3,20.3,10.6,29.1c4.1,6.7,15.2,6.3,20.4,1.5
		c1.2-0.3,2.4-0.8,3.4-1.7c2.1-1.9,4.1-3.9,5.8-6.1c7.7-4.3,13.3-12.2,16.3-19.1c4.6-10.6,5.9-22.5,4.4-33.6
		C293,218.8,288.8,207.2,281.3,197z M236.5,202.7c-1.8-3.8-3.5-7.7-5.5-11.5c1.5-0.3,3-0.5,4.7-0.6c5.2-0.3,9.1,0.1,13.4,2.9
		c9.1,5.9,15.7,16.1,19.3,25.2c3.7,9.5,5,19.9,2.9,29.7c-1.1,4.9-2.6,10-5.6,14.4c-0.9,1.2-1.9,2.3-3.1,3.2c-1.3-3.4-2.8-6.8-4-10.1
		c-3.4-9.1-6.9-18.1-10.6-27.1C244.3,219.9,240.5,211.3,236.5,202.7z"/>
	<path class="st0" d="M346,190.6c-8-3.3-17.8-3.3-25.5,0.8c-5.4,2.8-9.4,7.2-10.5,12.2c-7.4,10.5-7.3,26.7-2.3,37.8
		c5.2,11.6,18.5,23.4,34.4,21.7c18.4-1.9,21.5-24.1,21.7-36.6C363.9,213.7,361.1,196.7,346,190.6z M339.8,242.1
		c-0.4,1.3-0.9,2.5-1.4,3.7c-1-0.3-3.1-1-4.1-1.5c-4.6-2.2-7.6-5.7-10-9.6c-3.6-6-3.8-12.5-4.2-19c1.6-0.3,3.2-0.9,4.3-1.8
		c2.7-2.2,5-6.8,8.9-7.5c3-0.5,5.3,1.3,6.5,3.8C344.6,219.7,343.1,232.3,339.8,242.1z"/>
	<path class="st0" d="M444.7,208.9c-2-7.5-4.5-14.9-6.5-22.5c-0.1-0.2-0.2-0.5-0.3-0.7c-0.8-7.9-4.3-15.2-13.1-20.4
		c-2.8-1.7-6.3-2.8-10.1-3.6c-7.3,1.3-14.4,3.3-21.2,6c-0.7,0.3-1.4,0.4-2,0.5c-1.3,0.9-2.6,1.7-4,2.4c-1.9,1.4-3.9,2.9-5.8,4.3
		c-0.1,0.5-0.1,0.9-0.1,1.4c-1.8,1.4-3.5,3.1-4.7,4.7c-5.4,6.8-8,15.9-9.5,23.9c-1.6,8.5-1.1,17.3,4.1,25c4.7,7,12.8,12.2,22.3,13.2
		c16.5,1.7,28-7.7,34.8-19.1c0,1.1,0,2.2-0.1,3.3c-0.5,11.6-2.3,23.2-7.4,34c-4.2,8.9-11.1,17.4-20.6,22.9
		c-4.8,2.8-9.8,4.8-15.2,6.3c-5.9,1.6-11.2,1.7-17.2,2.2c-4.3,0.3-9.3,2.5-10.1,6.6c-0.2,0.8-0.3,1.6-0.4,2.4
		c-0.5,4.1,3.7,7.4,7.7,8.6c14.6,4.5,33.1-0.2,45.4-7.4c13.2-7.7,22.7-18.4,28.8-30.9c6.1-12.4,8.9-26.2,8.2-39.6
		C447.4,224.6,446.7,216.5,444.7,208.9z M415.1,199.9c-1.5,6.5-2.8,13.6-7,19.3c-2.6,3.5-7.6,7.7-13,6.7c-5.6-1.1-8.6-6.8-9.3-11.2
		c-0.2-1.1-0.3-2.2-0.3-3.3c-2.2-5.3-1.9-11.1,0.5-16.1c0.3-2.9,1.2-5.6,3.2-8c0.5-0.6,1.1-1.1,1.7-1.6c2.2-3.2,5.7-5.5,10.9-6.4
		c1.3-0.2,2.7,0,3.9,0.5c0.7-0.1,0.8-0.1,0.1,0c0.1,0,0.1,0.1,0.2,0.1c0.9,0,2.6,0.1,2.6,0c1,0.2,3.1,0.8,2.5,0.5
		c0.8,0.3,1.6,0.7,2.4,1.2c-0.9-0.5,1.4,1.7,1.1,1.2C418.1,187.7,416.3,194.6,415.1,199.9z"/>
</g>
</svg>
